<?xml version="1.0" encoding="UTF-8"?>
<svg width="1241px" height="466px" viewBox="0 0 1241 466" version="1.1" xmlns="http://www.w3.org/2000/svg" xmlns:xlink="http://www.w3.org/1999/xlink">
    <!-- Generator: Sketch 50 (54983) - http://www.bohemiancoding.com/sketch -->
    <title>main title</title>
    <desc>Created with Sketch.</desc>
    <defs>
        <linearGradient x1="50%" y1="0%" x2="50%" y2="100%" id="linearGradient-1">
            <stop stop-color="#FF06C6" offset="0%"></stop>
            <stop stop-color="#F31EC8" offset="6.13421339%"></stop>
            <stop stop-color="#E72BCB" offset="12.2684268%"></stop>
            <stop stop-color="#DA34CD" offset="18.4026402%"></stop>
            <stop stop-color="#CD3AD0" offset="24.5368536%"></stop>
            <stop stop-color="#C040D2" offset="30.671067%"></stop>
            <stop stop-color="#C040D2" offset="30.671067%"></stop>
            <stop stop-color="#B550D4" offset="34.893584%"></stop>
            <stop stop-color="#AA5CD7" offset="39.1161009%"></stop>
            <stop stop-color="#9D67D9" offset="43.3386179%"></stop>
            <stop stop-color="#9071DC" offset="47.5611349%"></stop>
            <stop stop-color="#807ADE" offset="51.7836519%"></stop>
            <stop stop-color="#807ADE" offset="51.7836519%"></stop>
            <stop stop-color="#7886E0" offset="56.4036983%"></stop>
            <stop stop-color="#6F92E2" offset="61.0237446%"></stop>
            <stop stop-color="#649DE5" offset="65.6437909%"></stop>
            <stop stop-color="#55A8E7" offset="70.2638373%"></stop>
            <stop stop-color="#41B3E9" offset="74.8838836%"></stop>
            <stop stop-color="#41B3E9" offset="74.8838836%"></stop>
            <stop stop-color="#3DBEEB" offset="79.9071069%"></stop>
            <stop stop-color="#37CAEE" offset="84.9303302%"></stop>
            <stop stop-color="#2FD6F0" offset="89.9535534%"></stop>
            <stop stop-color="#21E1F3" offset="94.9767767%"></stop>
            <stop stop-color="#01EDF5" offset="100%"></stop>
        </linearGradient>
        <filter x="-8.8%" y="-36.2%" width="117.5%" height="172.4%" filterUnits="objectBoundingBox" id="filter-2">
            <feGaussianBlur stdDeviation="31.9698661" in="SourceGraphic"></feGaussianBlur>
        </filter>
        <linearGradient x1="7.5420781%" y1="50%" x2="100%" y2="50%" id="linearGradient-3">
            <stop stop-color="#01EDF5" offset="0%"></stop>
            <stop stop-color="#FF0088" offset="100%"></stop>
        </linearGradient>
        <filter x="-1.4%" y="-62.5%" width="102.7%" height="225.0%" filterUnits="objectBoundingBox" id="filter-4">
            <feGaussianBlur stdDeviation="5" in="SourceGraphic"></feGaussianBlur>
        </filter>
        <filter x="-1.4%" y="-62.5%" width="102.7%" height="225.0%" filterUnits="objectBoundingBox" id="filter-5">
            <feGaussianBlur stdDeviation="5" in="SourceGraphic"></feGaussianBlur>
        </filter>
        <filter x="-1.4%" y="-8.9%" width="102.7%" height="117.8%" filterUnits="objectBoundingBox" id="filter-6">
            <feGaussianBlur stdDeviation="5" in="SourceGraphic"></feGaussianBlur>
        </filter>
    </defs>
    <g id="Page-1" stroke="none" stroke-width="1" fill="none" fill-rule="evenodd">
        <g id="main" transform="translate(-99.000000, -141.000000)">
            <g id="main-title" transform="translate(174.000000, 216.000000)">
                <text id="text" font-family=".AppleSystemUIFont" font-size="16" font-weight="normal" line-spacing="16" letter-spacing="8" fill="#A6A6A6">
                    <tspan x="352.671875" y="371.773438">A BLOCKCHAIN WORKSHOP </tspan>
                    <tspan x="494.953125" y="387.773438">SERIE</tspan>
                    <tspan x="577.382812" y="387.773438">S</tspan>
                </text>
                <g stroke-width="3">
                    <g id="Group-2">
                        <path d="M906.5,102.5 L906.5,49.5 L741.5,49.5 L741.5,214.5 L906.5,214.5 L906.5,161.5 L794.5,161.5 L794.5,146.5 L861.5,146.5 L861.5,117.5 L794.5,117.5 L794.5,102.5 L906.5,102.5 Z M1060.5,49.5 L925.5,49.5 L925.5,214.5 L978.5,214.5 L978.5,138.5 L1037.5,138.5 L1037.5,215.5 L1090.5,215.5 L1090.5,109.5 L1060.5,109.5 L1060.5,49.5 Z M978.5,94.5 L1023.5,94.5 L1023.5,109.5 L978.5,109.5 L978.5,94.5 Z M369.5,161.5 L369.5,214.5 L534.5,214.5 L534.5,117.5 L422.5,117.5 L422.5,102.5 L534.5,102.5 L534.5,49.5 L369.5,49.5 L369.5,146.5 L481.5,146.5 L481.5,161.5 L369.5,161.5 Z M722.5,102.5 L722.5,49.5 L553.5,49.5 L553.5,102.5 L610.5,102.5 L610.5,214.5 L663.5,214.5 L663.5,102.5 L665,102.5 L722.5,102.5 Z M350.5,49.5 L185.5,49.5 L185.5,214.5 L238.5,214.5 L238.5,138.5 L297.5,138.5 L297.5,214.5 L350.5,214.5 L350.5,49.5 Z M238.5,94.5 L297.5,94.5 L297.5,109.5 L238.5,109.5 L238.5,94.5 Z M166.5,49.5 L1.5,49.5 L1.5,214.5 L54.5,214.5 L54.5,102.5 L65.5,102.5 L65.5,139.5 L102.5,139.5 L102.5,102.5 L113.5,102.5 L113.5,214.5 L166.5,214.5 L166.5,49.5 Z M1.5,242.5 L1.5,263.5 L1091.5,263.5 L1091.5,242.5 L1.5,242.5 Z M1.5,1.5 L1.5,22.5 L1091.5,22.5 L1091.5,1.5 L1.5,1.5 Z" id="Combined-Shape" stroke="url(#linearGradient-1)" filter="url(#filter-2)"></path>
                        <g id="Group-4" opacity="0.400000006" stroke="url(#linearGradient-3)">
                            <path d="M1.5,242.5 L1.5,263.5 L1091.5,263.5 L1091.5,242.5 L1.5,242.5 Z" id="underline" opacity="0.5" filter="url(#filter-4)"></path>
                            <path d="M1.5,1.5 L1.5,22.5 L1091.5,22.5 L1091.5,1.5 L1.5,1.5 Z" id="underline" opacity="0.5" filter="url(#filter-5)"></path>
                            <path d="M906.5,102.5 L906.5,49.5 L741.5,49.5 L741.5,214.5 L906.5,214.5 L906.5,161.5 L794.5,161.5 L794.5,146.5 L861.5,146.5 L861.5,117.5 L794.5,117.5 L794.5,102.5 L796,102.5 L906.5,102.5 Z M1060.5,49.5 L925.5,49.5 L925.5,214.5 L978.5,214.5 L978.5,138.5 L1037.5,138.5 L1037.5,215.5 L1090.5,215.5 L1090.5,109.5 L1060.5,109.5 L1060.5,49.5 Z M978.5,94.5 L1023.5,94.5 L1023.5,109.5 L978.5,109.5 L978.5,94.5 Z M369.5,161.5 L369.5,214.5 L534.5,214.5 L534.5,117.5 L422.5,117.5 L422.5,102.5 L534.5,102.5 L534.5,49.5 L369.5,49.5 L369.5,146.5 L481.5,146.5 L481.5,161.5 L369.5,161.5 Z M722.5,102.5 L722.5,49.5 L553.5,49.5 L553.5,102.5 L610.5,102.5 L610.5,214.5 L663.5,214.5 L663.5,102.5 L722.5,102.5 Z M350.5,49.5 L185.5,49.5 L185.5,214.5 L238.5,214.5 L238.5,138.5 L297.5,138.5 L297.5,214.5 L350.5,214.5 L350.5,49.5 Z M238.5,94.5 L297.5,94.5 L297.5,109.5 L238.5,109.5 L238.5,94.5 Z M166.5,49.5 L1.5,49.5 L1.5,214.5 L54.5,214.5 L54.5,102.5 L56,102.5 L64,102.5 L65.5,102.5 L65.5,139.5 L102.5,139.5 L102.5,102.5 L104,102.5 L112,102.5 L113.5,102.5 L113.5,214.5 L166.5,214.5 L166.5,49.5 Z" id="Combined-Shape" opacity="0.5" filter="url(#filter-6)"></path>
                        </g>
                    </g>
                    <path d="M906.5,102.5 L906.5,49.5 L741.5,49.5 L741.5,214.5 L906.5,214.5 L906.5,161.5 L794.5,161.5 L794.5,146.5 L861.5,146.5 L861.5,117.5 L794.5,117.5 L794.5,102.5 L906.5,102.5 Z M1060.5,49.5 L925.5,49.5 L925.5,214.5 L978.5,214.5 L978.5,138.5 L1037.5,138.5 L1037.5,215.5 L1090.5,215.5 L1090.5,109.5 L1060.5,109.5 L1060.5,49.5 Z M978.5,94.5 L1023.5,94.5 L1023.5,109.5 L978.5,109.5 L978.5,94.5 Z M369.5,161.5 L369.5,214.5 L534.5,214.5 L534.5,117.5 L422.5,117.5 L422.5,102.5 L534.5,102.5 L534.5,49.5 L369.5,49.5 L369.5,146.5 L481.5,146.5 L481.5,161.5 L369.5,161.5 Z M722.5,102.5 L722.5,49.5 L553.5,49.5 L553.5,102.5 L610.5,102.5 L610.5,214.5 L663.5,214.5 L663.5,102.5 L665,102.5 L722.5,102.5 Z M350.5,49.5 L185.5,49.5 L185.5,214.5 L238.5,214.5 L238.5,138.5 L297.5,138.5 L297.5,214.5 L350.5,214.5 L350.5,49.5 Z M238.5,94.5 L297.5,94.5 L297.5,109.5 L238.5,109.5 L238.5,94.5 Z M166.5,49.5 L1.5,49.5 L1.5,214.5 L54.5,214.5 L54.5,102.5 L65.5,102.5 L65.5,139.5 L102.5,139.5 L102.5,102.5 L113.5,102.5 L113.5,214.5 L166.5,214.5 L166.5,49.5 Z M1.5,242.5 L1.5,263.5 L1091.5,263.5 L1091.5,242.5 L1.5,242.5 Z M1.5,1.5 L1.5,22.5 L1091.5,22.5 L1091.5,1.5 L1.5,1.5 Z" id="Combined-Shape" stroke="url(#linearGradient-1)" fill-opacity="0.3" fill="url(#linearGradient-1)"></path>
                </g>
            </g>
        </g>
    </g>
</svg>